<?xml version="1.0" encoding="UTF-8"?>
<svg width="63px" height="56px" viewBox="0 0 63 56" version="1.1" xmlns="http://www.w3.org/2000/svg" xmlns:xlink="http://www.w3.org/1999/xlink">
    <title>Group 9</title>
    <defs>
        <filter id="filter-1">
            <feColorMatrix in="SourceGraphic" type="matrix" values="0 0 0 0 0.590438 0 0 0 0 0.590438 0 0 0 0 0.590438 0 0 0 1.000000 0"></feColorMatrix>
        </filter>
        <filter id="filter-2">
            <feColorMatrix in="SourceGraphic" type="matrix" values="0 0 0 0 0.847000 0 0 0 0 0.847000 0 0 0 0 0.847000 0 0 0 1.000000 0"></feColorMatrix>
        </filter>
    </defs>
    <g id="Page-1" stroke="none" stroke-width="1" fill="none" fill-rule="evenodd">
        <g id="Filter-presets" transform="translate(-18.000000, -731.000000)">
            <g id="Group-9" transform="translate(19.000000, 731.000000)">
                <g id="Outlined/UI/shopping_cart" transform="translate(22.000000, 0.000000)" filter="url(#filter-1)">
                    <g>
                        <path d="M4.68749999,11.25 C5.46415042,11.25 6.09375,11.8795996 6.09375,12.65625 C6.09375,13.4329004 5.46415042,14.0625 4.68749999,14.0625 C3.91084956,14.0625 3.28124999,13.4329004 3.28124999,12.65625 C3.28124999,11.8795996 3.91084956,11.25 4.68749999,11.25 Z M10.3125,11.25 C11.0891504,11.25 11.71875,11.8795996 11.71875,12.65625 C11.71875,13.225025 11.3761282,13.7377948 10.8506486,13.9554556 C10.325169,14.1731164 9.72031578,14.0528036 9.31813109,13.6506189 C8.91594641,13.2484342 8.79563363,12.643581 9.01329441,12.1181014 C9.23095519,11.5926218 9.74372498,11.25 10.3125,11.25 Z M4.68749999,12.1875 C4.42861651,12.1875 4.21874999,12.3973665 4.21874999,12.65625 C4.21874999,12.9151335 4.42861651,13.125 4.68749999,13.125 C4.94638347,13.125 5.15624999,12.9151335 5.15624999,12.65625 C5.15624999,12.3973665 4.94638347,12.1875 4.68749999,12.1875 Z M10.3125,12.1875 C10.0536165,12.1875 9.84375001,12.3973665 9.84375001,12.65625 C9.84375001,12.9151335 10.0536165,13.125 10.3125,13.125 C10.5713835,13.125 10.78125,12.9151335 10.78125,12.65625 C10.78125,12.3973665 10.5713835,12.1875 10.3125,12.1875 Z M1.61249998,0.937499979 C2.25738153,0.937499979 2.81964131,1.37606432 2.97656249,2.00156248 L2.97656249,2.00156248 L3.17812499,2.81249999 L13.7015625,2.81249999 L12.7640625,6.590625 C12.6354762,7.10163144 12.2319999,7.49787048 11.71875,7.6171875 L11.71875,7.6171875 L4.77656249,9.25312501 L4.83281249,9.48750001 C4.88569477,9.70180467 5.08092319,9.85017827 5.30156249,9.84375001 L5.30156249,9.84375001 L11.71875,9.84375001 L11.71875,10.7813217 L5.30156249,10.7813217 C4.65144647,10.7877805 4.08160757,10.3478029 3.92343749,9.71718751 L3.92343749,9.71718751 L3.74999999,9.01875 L2.08124998,2.23124998 C2.0283677,2.01694532 1.83313928,1.86857172 1.61249998,1.87499998 L1.61249998,1.87499998 L0.937499979,1.87499998 L0.937499979,0.937499979 Z M12.525,3.74999999 L3.41249999,3.74999999 L4.56093749,8.34375 L11.521875,6.7078125 C11.6941622,6.6690761 11.8300597,6.53680251 11.8734375,6.365625 L11.8734375,6.365625 L12.525,3.74999999 Z" id="Style" fill="#252C32"></path>
                    </g>
                </g>
                <g filter="url(#filter-2)" id="Group-8">
                    <g transform="translate(0.000000, 21.000000)">
                        <rect id="Rectangle" stroke="#CBCBCB" x="0" y="0" width="39" height="34" rx="2"></rect>
                    </g>
                </g>
                <g id="Group-8" transform="translate(43.000000, 21.000000)" fill="#E9E9E9" stroke="#CBCBCB">
                    <rect id="Rectangle" x="0" y="0" width="18" height="34" rx="2"></rect>
                </g>
            </g>
        </g>
    </g>
</svg>