<?xml version="1.0" encoding="UTF-8" standalone="no"?><!-- Generator: Gravit.io --><svg xmlns="http://www.w3.org/2000/svg" xmlns:xlink="http://www.w3.org/1999/xlink" style="isolation:isolate" viewBox="0 0 49 45" width="49pt" height="45pt"><g><g><path d="M 4.5 1.5 L 29.22 1.5 C 30.876 1.5 32.22 2.844 32.22 4.5 L 32.22 41.7 C 32.22 43.356 30.876 44.7 29.22 44.7 L 4.5 44.7 C 2.844 44.7 1.5 43.356 1.5 41.7 L 1.5 4.5 C 1.5 2.844 2.844 1.5 4.5 1.5 Z" style="stroke:none;fill:#E9E9E9;stroke-miterlimit:10;"/><path d="M 4.5 1.5 L 29.22 1.5 C 30.876 1.5 32.22 2.844 32.22 4.5 L 32.22 41.7 C 32.22 43.356 30.876 44.7 29.22 44.7 L 4.5 44.7 C 2.844 44.7 1.5 43.356 1.5 41.7 L 1.5 4.5 C 1.5 2.844 2.844 1.5 4.5 1.5 Z" style="fill:none;stroke:#CBCBCB;stroke-width:1;stroke-miterlimit:2;"/><path d="M 40.4 1 L 48 1 C 48.552 1 49 1.448 49 2 L 49 43.2 C 49 43.752 48.552 44.2 48 44.2 L 40.4 44.2 C 39.848 44.2 39.4 43.752 39.4 43.2 L 39.4 2 C 39.4 1.448 39.848 1 40.4 1 Z" style="stroke:none;fill:#8E8E8E;stroke-miterlimit:2;"/></g></g><g><g><g><path d="M 5.279 4 L 17.721 4 C 18.427 4 19 4.573 19 5.279 L 19 8.721 C 19 9.427 18.427 10 17.721 10 L 5.279 10 C 4.573 10 4 9.427 4 8.721 L 4 5.279 C 4 4.573 4.573 4 5.279 4 Z" style="stroke:none;fill:#8E8E8E;stroke-miterlimit:2;"/></g></g></g></svg>