<svg xmlns="http://www.w3.org/2000/svg" viewBox="0 0 49 45" width="65.333" height="60"  xmlns:v="https://vecta.io/nano"><path d="M4.5 1.5h24.72a3 3 0 0 1 3 3v37.2a3 3 0 0 1-3 3H4.5a3 3 0 0 1-3-3V4.5a3 3 0 0 1 3-3z" fill="#e9e9e9"/><path d="M4.5 1.5h24.72a3 3 0 0 1 3 3v37.2a3 3 0 0 1-3 3H4.5a3 3 0 0 1-3-3V4.5a3 3 0 0 1 3-3z" fill="none" stroke="#cbcbcb" stroke-miterlimit="2"/><path d="M40.4 1H48a1 1 0 0 1 1 1v41.2a1 1 0 0 1-1 1h-7.6a1 1 0 0 1-1-1V2a1 1 0 0 1 1-1zM5.279 4h12.442A1.28 1.28 0 0 1 19 5.279v3.442A1.28 1.28 0 0 1 17.721 10H5.279A1.28 1.28 0 0 1 4 8.721V5.279A1.28 1.28 0 0 1 5.279 4z" fill="#8e8e8e"/></svg>