<?xml version="1.0" encoding="utf-8"?>
<!-- Generator: Adobe Illustrator 16.0.0, SVG Export Plug-In . SVG Version: 6.00 Build 0)  -->
<!DOCTYPE svg PUBLIC "-//W3C//DTD SVG 1.1//EN" "http://www.w3.org/Graphics/SVG/1.1/DTD/svg11.dtd">
<svg version="1.1" id="Layer_1" xmlns="http://www.w3.org/2000/svg" xmlns:xlink="http://www.w3.org/1999/xlink" x="0px" y="0px"
	 width="126.986px" height="82.332px" viewBox="0 0 126.986 82.332" enable-background="new 0 0 126.986 82.332"
	 xml:space="preserve">
<g>
	<path fill="#9AC21F" d="M59.107,12.359c2.459,0,4.586-0.862,6.378-2.591c1.596-1.528,2.426-3.123,2.492-4.785
		c0.066-1.129-0.365-2.242-1.295-3.339C65.751,0.548,64.59,0,63.195,0c-2.393,0-4.57,0.798-6.529,2.393
		c-1.961,1.595-2.975,3.256-3.041,4.983C53.492,10.699,55.32,12.359,59.107,12.359z"/>
	<path fill="#005B7C" d="M126.986,46.041l-1.121-1.475c-0.746,0.865-1.711,1.79-2.891,2.772c-1.416,1.18-2.398,1.771-2.949,1.771
		c-0.748,0-1.221-0.157-1.416-0.473c-0.197-0.314-0.275-0.885-0.236-1.711c0-0.314,0.246-1.523,0.738-3.628
		c0.49-2.104,0.756-3.707,0.795-4.809c0.039-1.612-0.256-2.852-0.885-3.717c-0.826-1.063-2.203-1.514-4.129-1.357
		c-2.242,0.197-4.584,1.082-7.021,2.655c-1.023,0.669-2.006,1.455-2.949,2.359c1.689-7.1,2.555-11.952,2.596-14.555
		c0.039-3.866-1.555-5.858-4.78-5.977c-3.658-0.118-6.334,1.946-8.023,6.194c0.707-0.314,1.375-0.472,2.006-0.472
		c0.51,0,1.041,0.315,1.592,0.945c0.826,0.986,1.16,2.503,1.004,4.552c-0.119,1.498-0.473,4.71-1.063,9.636
		c-0.143,1.23-0.267,2.362-0.375,3.414c-0.233,0.164-0.453,0.332-0.695,0.493c-2.99,1.994-5.715,2.99-8.173,2.99
		c-3.257,0-4.853-1.229-4.784-3.688c0.133-4.252,0.863-9.834,2.192-16.746h7.077c0.531,0,0.797-0.231,0.797-0.697l0.896-4.286
		c0.133-0.664-0.166-0.997-0.896-0.997h-6.677c1.594-7.575,2.691-12.824,3.288-15.749c0.133-0.53-0.265-0.797-1.194-0.797
		c-1.73,0-3.989,0.731-6.78,2.192c-2.99,1.595-4.619,3.19-4.883,4.785l-1.596,9.568h-4.086c-0.533,0-0.832,0.233-0.898,0.698
		l-0.896,4.286c-0.133,0.665,0.166,0.996,0.896,0.996h4.088c-1.002,5.766-1.758,10.535-2.273,14.335
		c-0.987,0.996-2.111,2.029-3.408,3.108c-2.393,1.994-4.055,2.99-4.983,2.99c-2.127,0-3.156-1.428-3.09-4.286
		c0.998-6.245,1.928-11.396,2.791-15.449c0.266-2.393-0.117-4.336-1.146-5.831c-1.031-1.495-2.641-2.144-4.834-1.944
		c-1.395,0.135-3.523,1.463-6.379,3.987c-2.127,1.929-4.254,3.854-6.379,5.781l2.293,2.691c1.859-1.396,2.99-2.094,3.389-2.094
		c1.195,0,1.793,0.865,1.793,2.592c0,0.334-0.646,2.791-1.943,7.376c-0.329,1.164-0.617,2.249-0.867,3.259
		c-2.998,2.074-6.837,4.243-11.542,6.51c2.391-7.907,3.721-15.283,3.986-22.128c0.199-5.515-2.26-8.339-7.377-8.473
		c-6.179-0.199-10.231,3.257-12.159,10.366c1.08-0.464,2.193-0.697,3.342-0.697c0.943,0,1.719,0.383,2.326,1.146
		c0.606,0.766,0.876,1.646,0.81,2.642c-0.066,2.592-1.388,5.367-3.966,8.323c-2.58,2.958-4.873,4.436-6.881,4.436
		c-1.406,0-2.076-1.196-2.01-3.588c0.066-1.262,0.498-3.821,1.295-7.676c0.73-3.653,1.098-6.112,1.098-7.376
		c0-2.192-0.566-3.97-1.695-5.332c-1.131-1.361-2.758-1.944-4.883-1.745c-1.463,0.135-3.623,1.463-6.48,3.987
		C4.252,24.057,2.127,25.982,0,27.909l2.293,2.691c1.859-1.396,2.99-2.094,3.389-2.094c1.262,0,1.859,0.865,1.795,2.592
		c0,0.134-0.598,2.228-1.793,6.28c-1.195,4.054-1.826,7.076-1.895,9.07c-0.135,2.726,0.367,4.818,1.5,6.279
		c1.4,1.795,3.734,2.559,7.006,2.293c3.869-0.266,7.738-1.695,11.609-4.285c1.602-1.063,3.135-2.294,4.604-3.689
		c-0.533,2.659-1.164,4.92-1.895,6.779c-7.176,3.254-12.359,6.045-15.549,8.373c-4.52,3.254-6.945,6.742-7.275,10.465
		c-0.6,6.445,2.656,9.668,9.768,9.668c4.783,0,9.402-2.924,13.855-8.771c3.786-4.982,7.075-11.629,9.866-19.934
		c4.831-2.398,8.912-4.746,12.255-7.044c-0.109,0.772-0.176,1.463-0.193,2.059c-0.066,2.128,0.449,3.854,1.545,5.185
		c1.096,1.328,2.674,1.992,4.734,1.992c4.451,0,8.904-1.926,13.356-5.781c1.298-1.139,2.479-2.333,3.555-3.577
		c-0.055,0.858-0.078,1.591-0.066,2.182c0.064,4.786,2.855,7.177,8.373,7.177c4.518,0,9.37-1.926,14.553-5.781
		c0.699-0.52,1.352-1.037,1.982-1.553c-0.001,0.026-0.003,0.057-0.004,0.082c-0.08,1.892,0.354,3.391,1.299,4.492
		c1.18,1.34,3.105,1.971,5.782,1.893c-0.354-0.826-0.492-2.361-0.414-4.604c0.08-2.556,0.973-4.975,2.676-7.257
		c1.545-2.084,2.971-3.127,4.279-3.127c0.869,0,1.266,0.729,1.188,2.184c-0.041,0.943-0.268,2.311-0.678,4.1
		c-0.412,1.791-0.639,3.334-0.68,4.632c-0.039,1.26,0.266,2.283,0.916,3.068c0.648,0.787,1.582,1.18,2.803,1.18
		c2.633,0,5.27-1.141,7.904-3.422C124.371,50.015,125.885,48.126,126.986,46.041z M16.248,68.479c-1.064,0-1.563-0.467-1.496-1.396
		c0.133-1.729,3.123-4.021,8.971-6.877C20.666,65.719,18.174,68.479,16.248,68.479z"/>
</g>
</svg>
