<svg xmlns="http://www.w3.org/2000/svg" width="126.986" height="82.332"  xmlns:v="https://vecta.io/nano"><path fill="#9ac21f" d="M59.107 12.359c2.459 0 4.586-.862 6.378-2.591 1.596-1.528 2.426-3.123 2.492-4.785.066-1.129-.365-2.242-1.295-3.339S64.59 0 63.195 0c-2.393 0-4.57.798-6.529 2.393s-2.975 3.256-3.041 4.983c-.133 3.323 1.695 4.983 5.482 4.983z"/><path fill="#005b7c" d="M126.986 46.041l-1.121-1.475c-.746.865-1.711 1.79-2.891 2.772-1.416 1.18-2.398 1.771-2.949 1.771-.748 0-1.221-.157-1.416-.473s-.275-.885-.236-1.711c0-.314.246-1.523.738-3.628s.756-3.707.795-4.809c.039-1.612-.256-2.852-.885-3.717-.826-1.063-2.203-1.514-4.129-1.357-2.242.197-4.584 1.082-7.021 2.655-1.023.669-2.006 1.455-2.949 2.359 1.689-7.1 2.555-11.952 2.596-14.555.039-3.866-1.555-5.858-4.78-5.977-3.658-.118-6.334 1.946-8.023 6.194.707-.314 1.375-.472 2.006-.472.51 0 1.041.315 1.592.945.826.986 1.16 2.503 1.004 4.552-.119 1.498-.473 4.71-1.063 9.636l-.375 3.414c-.233.164-.453.332-.695.493-2.99 1.994-5.715 2.99-8.173 2.99-3.257 0-4.853-1.229-4.784-3.688.133-4.252.863-9.834 2.192-16.746h7.077c.531 0 .797-.231.797-.697l.896-4.286c.133-.664-.166-.997-.896-.997h-6.677l3.288-15.749c.133-.53-.265-.797-1.194-.797-1.73 0-3.989.731-6.78 2.192-2.99 1.595-4.619 3.19-4.883 4.785l-1.596 9.568h-4.086c-.533 0-.832.233-.898.698l-.896 4.286c-.133.665.166.996.896.996h4.088c-1.002 5.766-1.758 10.535-2.273 14.335a47.98 47.98 0 0 1-3.408 3.108c-2.393 1.994-4.055 2.99-4.983 2.99-2.127 0-3.156-1.428-3.09-4.286.998-6.245 1.928-11.396 2.791-15.449.266-2.393-.117-4.336-1.146-5.831s-2.641-2.144-4.834-1.944c-1.395.135-3.523 1.463-6.379 3.987l-6.379 5.781 2.293 2.691c1.859-1.396 2.99-2.094 3.389-2.094 1.195 0 1.793.865 1.793 2.592 0 .334-.646 2.791-1.943 7.376a103.01 103.01 0 0 0-.867 3.259c-2.998 2.074-6.837 4.243-11.542 6.51 2.391-7.907 3.721-15.283 3.986-22.128.199-5.515-2.26-8.339-7.377-8.473-6.179-.199-10.231 3.257-12.159 10.366 1.08-.464 2.193-.697 3.342-.697.943 0 1.719.383 2.326 1.146s.876 1.646.81 2.642c-.066 2.592-1.388 5.367-3.966 8.323s-4.873 4.436-6.881 4.436c-1.406 0-2.076-1.196-2.01-3.588.066-1.262.498-3.821 1.295-7.676.73-3.653 1.098-6.112 1.098-7.376 0-2.192-.566-3.97-1.695-5.332s-2.758-1.944-4.883-1.745c-1.463.135-3.623 1.463-6.48 3.987L0 27.909 2.293 30.6c1.859-1.396 2.99-2.094 3.389-2.094 1.262 0 1.859.865 1.795 2.592 0 .134-.598 2.228-1.793 6.28s-1.826 7.076-1.895 9.07c-.135 2.726.367 4.818 1.5 6.279 1.4 1.795 3.734 2.559 7.006 2.293 3.869-.266 7.738-1.695 11.609-4.285 1.602-1.063 3.135-2.294 4.604-3.689-.533 2.659-1.164 4.92-1.895 6.779-7.176 3.254-12.359 6.045-15.549 8.373-4.52 3.254-6.945 6.742-7.275 10.465-.6 6.445 2.656 9.668 9.768 9.668 4.783 0 9.402-2.924 13.855-8.771 3.786-4.982 7.075-11.629 9.866-19.934 4.831-2.398 8.912-4.746 12.255-7.044-.109.772-.176 1.463-.193 2.059-.066 2.128.449 3.854 1.545 5.185s2.674 1.992 4.734 1.992c4.451 0 8.904-1.926 13.356-5.781a36.66 36.66 0 0 0 3.555-3.577c-.055.858-.078 1.591-.066 2.182.064 4.786 2.855 7.177 8.373 7.177 4.518 0 9.37-1.926 14.553-5.781a53.62 53.62 0 0 0 1.982-1.553l-.004.082c-.08 1.892.354 3.391 1.299 4.492 1.18 1.34 3.105 1.971 5.782 1.893-.354-.826-.492-2.361-.414-4.604.08-2.556.973-4.975 2.676-7.257 1.545-2.084 2.971-3.127 4.279-3.127.869 0 1.266.729 1.188 2.184-.041.943-.268 2.311-.678 4.1s-.639 3.334-.68 4.632c-.039 1.26.266 2.283.916 3.068s1.582 1.18 2.803 1.18c2.633 0 5.27-1.141 7.904-3.422 1.928-1.691 3.442-3.58 4.543-5.665zM16.248 68.479c-1.064 0-1.563-.467-1.496-1.396.133-1.729 3.123-4.021 8.971-6.877-3.057 5.513-5.549 8.273-7.475 8.273z"/></svg>