<?xml version="1.0" encoding="utf-8"?>
<!-- Generator: Adobe Illustrator 16.0.0, SVG Export Plug-In . SVG Version: 6.00 Build 0)  -->
<!DOCTYPE svg PUBLIC "-//W3C//DTD SVG 1.1//EN" "http://www.w3.org/Graphics/SVG/1.1/DTD/svg11.dtd">
<svg version="1.1" xmlns="http://www.w3.org/2000/svg" xmlns:xlink="http://www.w3.org/1999/xlink" x="0px" y="0px"
	 width="386.005px" height="366.508px" viewBox="0 0 386.005 366.508" enable-background="new 0 0 386.005 366.508"
	 xml:space="preserve">
<g id="Layer_1">
</g>
<g id="Layer_2">
	<g>
		<path fill="#4D4D4D" d="M349.733,22.531h-36.32V7.798c0-4.306-3.492-7.798-7.798-7.798c-4.307,0-7.799,3.492-7.799,7.798v14.733
			h-59.479V7.798c0-4.306-3.492-7.798-7.799-7.798c-4.306,0-7.798,3.492-7.798,7.798v14.733h-59.477V7.798
			c0-4.306-3.492-7.798-7.799-7.798c-4.306,0-7.798,3.492-7.798,7.798v14.733H88.188V7.798C88.188,3.492,84.697,0,80.391,0
			c-4.306,0-7.798,3.492-7.798,7.798v14.733H36.271C16.272,22.531,0,38.802,0,58.802v271.436c0,20,16.272,36.271,36.271,36.271
			h313.462c20,0,36.271-16.271,36.271-36.271V58.802C386.005,38.802,369.733,22.531,349.733,22.531z M36.271,38.127h36.321v14.731
			c0,4.307,3.492,7.798,7.798,7.798c4.307,0,7.798-3.491,7.798-7.798V38.127h59.479v14.731c0,4.307,3.492,7.798,7.798,7.798
			c4.307,0,7.799-3.491,7.799-7.798V38.127h59.477v14.731c0,4.307,3.492,7.798,7.798,7.798c4.307,0,7.799-3.491,7.799-7.798V38.127
			h59.479v14.731c0,4.307,3.492,7.798,7.799,7.798c4.306,0,7.798-3.491,7.798-7.798V38.127h36.32c11.4,0,20.676,9.274,20.676,20.675
			v29.032H15.597V58.802C15.597,47.401,24.872,38.127,36.271,38.127z M349.733,350.912H36.271c-11.399,0-20.675-9.274-20.675-20.675
			V103.431h354.813v226.807C370.409,341.638,361.134,350.912,349.733,350.912z"/>
		<path fill="#4D4D4D" d="M135.316,145.362H65.932c-4.307,0-7.798,3.491-7.798,7.798v55.746c0,4.307,3.491,7.798,7.798,7.798h69.385
			c4.306,0,7.798-3.491,7.798-7.798V153.16C143.114,148.854,139.622,145.362,135.316,145.362z M127.519,201.107H73.729v-40.149
			h53.789V201.107z"/>
		<path fill="#4D4D4D" d="M193.002,145.362c-6.45,0-11.697,5.247-11.697,11.697s5.247,11.696,11.697,11.696
			s11.697-5.246,11.697-11.696S199.452,145.362,193.002,145.362z"/>
		<path fill="#4D4D4D" d="M254.589,145.362c-6.45,0-11.697,5.247-11.697,11.697s5.247,11.696,11.697,11.696
			c6.449,0,11.696-5.246,11.696-11.696S261.038,145.362,254.589,145.362z"/>
		<path fill="#4D4D4D" d="M316.175,145.362c-6.45,0-11.697,5.247-11.697,11.697s5.247,11.696,11.697,11.696
			s11.697-5.246,11.697-11.696S322.625,145.362,316.175,145.362z"/>
		<path fill="#4D4D4D" d="M193.002,193.31c-6.45,0-11.697,5.247-11.697,11.697s5.247,11.697,11.697,11.697
			s11.697-5.247,11.697-11.697S199.452,193.31,193.002,193.31z"/>
		<path fill="#4D4D4D" d="M254.589,193.31c-6.45,0-11.697,5.247-11.697,11.697s5.247,11.697,11.697,11.697
			c6.449,0,11.696-5.247,11.696-11.697S261.038,193.31,254.589,193.31z"/>
		<path fill="#4D4D4D" d="M316.175,193.31c-6.45,0-11.697,5.247-11.697,11.697s5.247,11.697,11.697,11.697
			s11.697-5.247,11.697-11.697S322.625,193.31,316.175,193.31z"/>
		<path fill="#4D4D4D" d="M193.002,241.258c-6.45,0-11.697,5.247-11.697,11.697s5.247,11.696,11.697,11.696
			s11.697-5.246,11.697-11.696S199.452,241.258,193.002,241.258z"/>
		<path fill="#4D4D4D" d="M254.589,241.258c-6.45,0-11.697,5.247-11.697,11.697s5.247,11.696,11.697,11.696
			c6.449,0,11.696-5.246,11.696-11.696S261.038,241.258,254.589,241.258z"/>
		<path fill="#4D4D4D" d="M254.589,289.206c-6.45,0-11.697,5.247-11.697,11.697s5.247,11.697,11.697,11.697
			c6.449,0,11.696-5.247,11.696-11.697S261.038,289.206,254.589,289.206z"/>
		<path fill="#4D4D4D" d="M316.175,241.258c-6.45,0-11.697,5.247-11.697,11.697s5.247,11.696,11.697,11.696
			s11.697-5.246,11.697-11.696S322.625,241.258,316.175,241.258z"/>
		<path fill="#4D4D4D" d="M131.417,241.258c-6.45,0-11.697,5.247-11.697,11.697s5.247,11.696,11.697,11.696
			s11.697-5.246,11.697-11.696S137.867,241.258,131.417,241.258z"/>
		<path fill="#4D4D4D" d="M69.83,241.258c-6.45,0-11.696,5.247-11.696,11.697s5.246,11.696,11.696,11.696
			s11.697-5.246,11.697-11.696S76.28,241.258,69.83,241.258z"/>
		<path fill="#4D4D4D" d="M193.002,289.206c-6.45,0-11.697,5.247-11.697,11.697s5.247,11.697,11.697,11.697
			s11.697-5.247,11.697-11.697S199.452,289.206,193.002,289.206z"/>
		<path fill="#4D4D4D" d="M131.417,289.206c-6.45,0-11.697,5.247-11.697,11.697s5.247,11.697,11.697,11.697
			s11.697-5.247,11.697-11.697S137.867,289.206,131.417,289.206z"/>
		<path fill="#4D4D4D" d="M69.83,289.206c-6.45,0-11.696,5.247-11.696,11.697s5.246,11.697,11.696,11.697
			s11.697-5.247,11.697-11.697S76.28,289.206,69.83,289.206z"/>
	</g>
</g>
</svg>
