<svg xmlns="http://www.w3.org/2000/svg" xmlns:xlink="http://www.w3.org/1999/xlink" width="386.005" height="366.508" xmlns:v="https://vecta.io/nano"><g fill="#4d4d4d"><path d="M349.733 22.531h-36.32V7.798A7.8 7.8 0 0 0 305.615 0a7.8 7.8 0 0 0-7.799 7.798v14.733h-59.479V7.798A7.8 7.8 0 0 0 230.538 0a7.8 7.8 0 0 0-7.798 7.798v14.733h-59.477V7.798A7.8 7.8 0 0 0 155.464 0a7.8 7.8 0 0 0-7.798 7.798v14.733H88.188V7.798A7.8 7.8 0 0 0 80.391 0a7.8 7.8 0 0 0-7.798 7.798v14.733H36.271C16.272 22.531 0 38.802 0 58.802v271.436c0 20 16.272 36.271 36.271 36.271h313.462c20 0 36.271-16.271 36.271-36.271V58.802c.001-20-16.271-36.271-36.271-36.271zM36.271 38.127h36.321v14.731a7.8 7.8 0 0 0 7.798 7.798 7.8 7.8 0 0 0 7.798-7.798V38.127h59.479v14.731a7.8 7.8 0 0 0 7.798 7.798 7.8 7.8 0 0 0 7.799-7.798V38.127h59.477v14.731a7.8 7.8 0 0 0 7.798 7.798 7.8 7.8 0 0 0 7.799-7.798V38.127h59.479v14.731a7.8 7.8 0 0 0 7.799 7.798 7.8 7.8 0 0 0 7.798-7.798V38.127h36.32c11.4 0 20.676 9.274 20.676 20.675v29.032H15.597V58.802c0-11.401 9.275-20.675 20.674-20.675zm313.462 312.785H36.271c-11.399 0-20.675-9.274-20.675-20.675V103.431h354.813v226.807c0 11.4-9.275 20.674-20.676 20.674zm-214.417-205.55H65.932a7.8 7.8 0 0 0-7.798 7.798v55.746a7.8 7.8 0 0 0 7.798 7.798h69.385a7.8 7.8 0 0 0 7.798-7.798V153.16c-.001-4.306-3.493-7.798-7.799-7.798zm-7.797 55.745h-53.79v-40.149h53.789v40.149z"/><use xlink:href="#B"/><use xlink:href="#C"/><use xlink:href="#B" x="123.173"/><use xlink:href="#D"/><use xlink:href="#E"/><use xlink:href="#D" x="123.173"/><use xlink:href="#B" y="95.896"/><use xlink:href="#C" y="95.896"/><use xlink:href="#E" y="95.896"/><use xlink:href="#B" x="123.173" y="95.896"/><use xlink:href="#B" x="-61.585" y="95.896"/><path d="M69.83,241.258c-6.45,0-11.696,5.247-11.696,11.697s5.246,11.696,11.696,11.696     s11.697-5.246,11.697-11.696S76.28,241.258,69.83,241.258z"/><use xlink:href="#D" y="95.896"/><use xlink:href="#D" x="-61.585" y="95.896"/><path d="M69.83 289.206c-6.45 0-11.696 5.247-11.696 11.697S63.38 312.6 69.83 312.6s11.697-5.247 11.697-11.697-5.247-11.697-11.697-11.697z"/></g><defs ><path id="B" d="M193.002 145.362c-6.45 0-11.697 5.247-11.697 11.697s5.247 11.696 11.697 11.696 11.697-5.246 11.697-11.696-5.247-11.697-11.697-11.697z"/><path id="C" d="M254.589 145.362c-6.45 0-11.697 5.247-11.697 11.697s5.247 11.696 11.697 11.696 11.696-5.246 11.696-11.696-5.247-11.697-11.696-11.697z"/><path id="D" d="M193.002 193.31c-6.45 0-11.697 5.247-11.697 11.697s5.247 11.697 11.697 11.697 11.697-5.247 11.697-11.697-5.247-11.697-11.697-11.697z"/><path id="E" d="M254.589 193.31c-6.45 0-11.697 5.247-11.697 11.697s5.247 11.697 11.697 11.697 11.696-5.247 11.696-11.697-5.247-11.697-11.696-11.697z"/></defs></svg>