<svg xmlns="http://www.w3.org/2000/svg" width="20" height="20"  xmlns:v="https://vecta.io/nano"><path d="M8 20c-1.103 0-2-.897-2-2s.897-2 2-2 2 .897 2 2-.897 2-2 2zm0-3a1 1 0 1 0 0 2 1 1 0 1 0 0-2zm7 3c-1.103 0-2-.897-2-2s.897-2 2-2 2 .897 2 2-.897 2-2 2zm0-3a1 1 0 1 0 0 2 1 1 0 1 0 0-2zm2.539-12.533C17.288 4.17 16.909 4 16.5 4H4.257l-.099-.596A1.72 1.72 0 0 0 2.5 2h-1a.5.5 0 1 0 0 1h1c.307 0 .621.266.671.569l1.671 10.027A1.72 1.72 0 0 0 6.5 15h10a.5.5 0 1 0 0-1h-10c-.307 0-.621-.266-.671-.569l-.247-1.48 9.965-.867c.775-.067 1.483-.721 1.611-1.489l.671-4.027c.067-.404-.038-.806-.289-1.102zm-.697.937l-.671 4.027a.87.87 0 0 1-.711.657l-10.043.873-.994-5.962h12.076c.117 0 .215.04.276.113s.085.176.066.291z"/></svg>