<svg xmlns="http://www.w3.org/2000/svg" width="20" height="20"  xmlns:v="https://vecta.io/nano"><path d="M9.5 11A5.51 5.51 0 0 1 4 5.5 5.51 5.51 0 0 1 9.5 0 5.51 5.51 0 0 1 15 5.5 5.51 5.51 0 0 1 9.5 11zm0-10C7.019 1 5 3.019 5 5.5S7.019 10 9.5 10 14 7.981 14 5.5 11.981 1 9.5 1zm8 19h-16A1.5 1.5 0 0 1 0 18.5c0-.068.014-1.685 1.225-3.3.705-.94 1.67-1.687 2.869-2.219C5.558 12.33 7.377 12 9.5 12s3.942.33 5.406.981c1.199.533 2.164 1.279 2.869 2.219C18.986 16.815 19 18.432 19 18.5a1.5 1.5 0 0 1-1.5 1.5zm-8-7c-3.487 0-6.06.953-7.441 2.756C1.024 17.107 1.001 18.488 1 18.502a.5.5 0 0 0 .5.498h16a.5.5 0 0 0 .5-.5c0-.012-.023-1.393-1.059-2.744C15.559 13.953 12.986 13 9.5 13z"/></svg>