<svg xmlns="http://www.w3.org/2000/svg" width="20.5" height="20.479"  xmlns:v="https://vecta.io/nano"><defs><clipPath id="A"><path d="M0 0h20.5v20.479H0z"/></clipPath></defs><g clip-path="url(#A)"><path d="M18.24 7.628c-.949.656-2.164 1.343-3.653 2.06.757-2.502 1.178-4.837 1.262-7.004.063-1.745-.716-2.639-2.335-2.681-1.956-.063-3.239 1.03-3.849 3.281a2.65 2.65 0 0 1 1.058-.221.9.9 0 0 1 .736.363c.192.242.277.521.256.836-.02.82-.439 1.699-1.255 2.634S8.918 8.3 8.282 8.3c-.445 0-.657-.378-.636-1.135.021-.4.158-1.21.41-2.43l.347-2.334c0-.694-.179-1.257-.536-1.688S6.994.098 6.321.161C5.858.203 5.175.624 4.27 1.422L2.25 3.254l.726.852c.588-.442.946-.663 1.072-.663.4 0 .589.274.569.82 0 .043-.19.705-.568 1.988s-.578 2.24-.6 2.871c-.042.863.116 1.525.475 1.987.443.568 1.182.81 2.218.726 1.224-.084 2.449-.537 3.674-1.356a10.76 10.76 0 0 0 1.457-1.168c-.168.842-.368 1.557-.6 2.146-2.271 1.03-3.911 1.913-4.921 2.65-1.431 1.03-2.198 2.134-2.303 3.312-.19 2.04.841 3.06 3.092 3.06 1.514 0 2.976-.925 4.385-2.776 1.199-1.577 2.24-3.681 3.123-6.309 1.529-.759 2.821-1.502 3.879-2.23-.034.245.391-1.856.312-1.536zM7.393 16.095c-.337 0-.495-.148-.474-.442.042-.547.989-1.273 2.84-2.177-.968 1.745-1.757 2.619-2.366 2.619z" fill="#fff"/></g></svg>